<svg preserveAspectRatio="xMidYMid meet" width="57.6209" height="127.292" viewBox="0 -3 57.6209 127.292" overflow="visible" style="display: block;" fill="none" xmlns="http://www.w3.org/2000/svg">
<g id="logo-symbol">
<path d="M4.10399 108.274V26.5572C4.00934 24.5407 3.87829 16.6831 9.59129 10.6409C17.1561 2.64215 30.9265 2.09917 38.6247 8.22025C43.981 12.4804 45.1119 18.9363 45.7381 23.0075C47.7718 36.2901 42.2894 47.3865 38.7898 54.0338C31.8002 67.3045 20.8037 86.0983 4.10399 108.274Z" stroke="#6FD55F" stroke-width="8.15495" stroke-miterlimit="10"/>
<path d="M4.23095 108.273C4.1832 104.214 4.14739 100.155 4.12352 96.0979C4.03281 81.7174 4.07816 67.3417 4.2596 52.9707C8.96966 52.5834 15.685 52.267 23.7396 52.6991C35.1627 53.3131 40.9685 53.5586 45.2131 56.77C51.4916 61.5257 54.7311 70.5011 53.1459 78.8602C51.6969 86.4944 46.3661 92.9384 40.0446 95.5359C38.3091 96.249 36.9555 96.445 25.5587 96.9598C19.8317 97.2171 15.0333 97.3966 11.5527 97.5147C9.11051 101.102 6.67073 104.686 4.23095 108.273Z" stroke="#6FD55F" stroke-width="8.15495" stroke-miterlimit="10"/>
</g>
</svg>
